<svg fill="#7950F2" xmlns="http://www.w3.org/2000/svg"  viewBox="0 0 50 50" width="250px" height="250px"><path d="M 25 2 C 12.309295 2 2 12.309295 2 25 C 2 37.690705 12.309295 48 25 48 C 37.690705 48 48 37.690705 48 25 C 48 12.309295 37.690705 2 25 2 z M 25 4 C 36.609824 4 46 13.390176 46 25 C 46 36.609824 36.609824 46 25 46 C 13.390176 46 4 36.609824 4 25 C 4 13.390176 13.390176 4 25 4 z M 25 13.994141 C 24.845 13.994141 24.690781 14.029609 24.550781 14.099609 L 6.5507812 22.099609 C 6.2107813 22.269609 6 22.62 6 23 C 6 23.38 6.2107813 23.730391 6.5507812 23.900391 L 9 25.572266 L 9 31.279297 C 8.4051922 31.626887 8 32.265006 8 33 C 8 34.1 10 37 10 37 C 10 37 12 34.1 12 33 C 12 32.265006 11.594808 31.626887 11 31.279297 L 11 26.9375 L 12 27.619141 L 12 26 C 12 25.25 12.18 24.620078 12.5 24.080078 C 14.35 21.000078 20.86 21 25 21 C 29.02 21 35.280078 21.000078 37.330078 23.830078 C 37.760078 24.420078 38 25.14 38 26 L 38 27.619141 L 43.449219 23.890625 C 43.789219 23.730625 44 23.38 44 23 C 44 22.62 43.789219 22.269609 43.449219 22.099609 L 25.449219 14.099609 C 25.309219 14.029609 25.155 13.994141 25 13.994141 z M 25 23 C 19.4 23 14 23.39 14 26 L 14 28.449219 C 15.74 27.649219 18.97 27 25 27 C 31.03 27 34.26 27.649219 36 28.449219 L 36 26 C 36 23.39 30.6 23 25 23 z M 25 29 A 11 2 0 0 0 14 31 A 11 2 0 0 0 25 33 A 11 2 0 0 0 36 31 A 11 2 0 0 0 25 29 z"/></svg>